# xmcd
#
# Track frame offsets:
#	150
#	11673
#	27751
#	42553
#	58162
#	74941
#	89614
#	106536
#	121117
#	138008
#	156774
#
# Disc length: 2315 seconds
#
# Revision: 1
# Processed by: cddbd v1.5.2PL0 Copyright (c) Steve Scherf et al.
# Submitted via: audiograbber 1.83.01
#
DISCID=9109090b
DTITLE=Little Big Town - Tornado
DYEAR=2012
DGENRE=Country
TTITLE0=Pavement Ends
TTITLE1=Pontoon
TTITLE2=Sober
TTITLE3=Front Porch Thing
TTITLE4=Your Side of the Bed
TTITLE5=Leavin' in Your Eyes
TTITLE6=Tornado
TTITLE7=On Fire Tonight
TTITLE8=Can't Go Back
TTITLE9=Self Made
TTITLE10=Night Owl
EXTD=
EXTT0=
EXTT1=
EXTT2=
EXTT3=
EXTT4=
EXTT5=
EXTT6=
EXTT7=
EXTT8=
EXTT9=
EXTT10=
PLAYORDER=
